<?xml version="1.0" encoding="UTF-8"?><svg version="1.1" xmlns="http://www.w3.org/2000/svg" width="500" height="500"><path d="M0 0 C165 0 330 0 500 0 C500 165 500 330 500 500 C335 500 170 500 0 500 C0 335 0 170 0 0 Z " fill="#4FD6D4" transform="translate(0,0)"/><path d="M0 0 C12.54 0 25.08 0 38 0 C38.11340703 30.03861726 38.20274939 60.07721056 38.25532665 90.11599469 C38.26157899 93.67514916 38.26805072 97.2343032 38.2746582 100.79345703 C38.27662553 101.85614925 38.27662553 101.85614925 38.2786326 102.94031 C38.30029513 114.36021626 38.33966514 125.77999462 38.38576398 137.19982541 C38.43278527 148.94754222 38.46034911 160.6951928 38.47044247 172.44299984 C38.47664345 179.02899244 38.49199292 185.61474899 38.52865028 192.20065308 C38.56297652 198.4190314 38.57298006 204.63700658 38.56553841 210.85547066 C38.56689677 213.11911789 38.57660796 215.3827808 38.59602737 217.64634514 C38.77070875 239.08716114 36.08347052 259.82735059 26 279 C25.52989502 279.91531494 25.52989502 279.91531494 25.05029297 280.84912109 C20.62460019 289.37426087 15.30410953 296.76151026 9 304 C8.48824219 304.64453125 7.97648438 305.2890625 7.44921875 305.953125 C-2.97725286 318.9935571 -18.9943576 328.14348924 -34 335 C-34.69222656 335.32742188 -35.38445312 335.65484375 -36.09765625 335.9921875 C-48.44300861 341.25592015 -62.80187144 341.55700726 -76 342 C-48.15540738 345.94545912 -21.35376333 340.34632567 1.93359375 324.34765625 C4 323 4 323 7 322 C7 321.34 7 320.68 7 320 C8.72265625 318.51953125 8.72265625 318.51953125 11.0625 316.8125 C19.63299711 310.28769097 25.72795771 302.7463342 32 294 C32.54785156 293.2471875 33.09570312 292.494375 33.66015625 291.71875 C51.43124809 266.31793606 54.62462659 237.04554303 54.54589844 206.84326172 C54.55466635 204.56358649 54.56516309 202.28391738 54.57722473 200.0042572 C54.60471169 193.90883337 54.6084978 187.813614 54.60750484 181.71813726 C54.61066654 175.31335895 54.63635138 168.90866846 54.65948486 162.50393677 C54.69524231 151.78419137 54.71748902 141.06451947 54.72900391 130.34472656 C54.74088615 119.31832471 54.76118527 108.29198957 54.79248047 97.265625 C54.79441657 96.58245983 54.79635267 95.89929466 54.79834744 95.19542752 C54.80811411 91.76714316 54.81804284 88.33885929 54.82805204 84.91057563 C54.91047829 56.60708077 54.96361942 28.30358841 55 0 C61.93 0 68.86 0 76 0 C76.09060905 31.66950822 76.16213721 63.33896658 76.20426132 95.00857391 C76.20926356 98.75571616 76.21444091 102.50285814 76.21972656 106.25 C76.2207758 106.99592272 76.22182505 107.74184544 76.22290608 108.51037188 C76.24026524 120.55509119 76.27177788 132.59973337 76.30861118 144.64440708 C76.3461461 157.02264502 76.36826223 169.40084284 76.37635398 181.77913535 C76.38181588 189.40433841 76.39900476 197.02932339 76.43166587 204.65445925 C76.45550381 210.52209251 76.45778845 216.38961659 76.45243073 222.25729942 C76.4535232 224.64923753 76.46137235 227.04118458 76.4768219 229.43307304 C76.58422657 246.93281636 75.15375961 262.96231918 68.25 279.25 C67.90710938 280.07935059 67.56421875 280.90870117 67.2109375 281.76318359 C62.31368643 293.32042803 56.15869974 303.41866984 48 313 C47.33613281 313.84949219 46.67226563 314.69898438 45.98828125 315.57421875 C43.03003124 319.1834 39.55915999 322.00091087 36 325 C35.20722656 325.70382812 34.41445313 326.40765625 33.59765625 327.1328125 C11.15647872 346.50309205 -18.46770055 356.1478036 -48 354 C-76.47028544 351.11372829 -100.84309647 339.0286943 -122 320 C-122.82757813 319.2575 -123.65515625 318.515 -124.5078125 317.75 C-130.74104984 311.84254161 -135.30856013 305.14928791 -140 298 C-140.75295199 296.86785436 -141.50682357 295.73631963 -142.26171875 294.60546875 C-143.12216797 293.31576172 -143.12216797 293.31576172 -144 292 C-143.67 291.34 -143.34 290.68 -143 290 C-142.30777344 290.43570312 -141.61554688 290.87140625 -140.90234375 291.3203125 C-117.37170569 305.64330958 -91.15939486 311.16818599 -64 305 C-49.71463216 301.26615253 -37.16845297 294.70779011 -26 285 C-25.11634766 284.2575 -25.11634766 284.2575 -24.21484375 283.5 C-9.54640363 270.13467871 -1.65217424 249.0598219 -0.62360382 229.60776901 C-0.42397356 223.53378604 -0.43875888 217.46080703 -0.45410156 211.38427734 C-0.44534739 209.06637383 -0.43485526 206.74847634 -0.42277527 204.43058777 C-0.39512066 198.19420038 -0.39150602 191.95801217 -0.39249516 185.7215724 C-0.38934828 179.18328453 -0.36369337 172.64508405 -0.34051514 166.10684204 C-0.30401517 155.15098477 -0.2824844 144.19516831 -0.27099609 133.23925781 C-0.25913506 121.96415863 -0.238876 110.68912505 -0.20751953 99.4140625 C-0.20558343 98.71684756 -0.20364733 98.01963262 -0.20165256 97.30128996 C-0.1918867 93.80290424 -0.18195783 90.30451901 -0.17194796 86.80613399 C-0.08936594 57.87079059 -0.03632345 28.93543739 0 0 Z " fill="#0D2123" transform="translate(290,73)"/><path d="M0 0 C25.41 0 50.82 0 77 0 C77.03738281 7.62222656 77.07476562 15.24445313 77.11328125 23.09765625 C77.14358771 27.95119369 77.17475318 32.80469564 77.20898438 37.65820312 C77.26313437 45.34739303 77.31425085 53.03651276 77.34643555 60.72583008 C77.37260856 66.93107716 77.41310863 73.13608605 77.46318626 79.34118462 C77.47976079 81.69838923 77.49133326 84.05563496 77.49761391 86.41288948 C77.56160832 108.24053444 78.49657129 128.28799914 94.62890625 144.8828125 C102.11812581 151.57005633 110.40317265 154.44285165 120 157 C120 157.33 120 157.66 120 158 C112.2365895 158.04660678 104.47321257 158.08201179 96.70969677 158.10362434 C93.10369567 158.11400406 89.49779121 158.12805516 85.8918457 158.15087891 C82.40347168 158.17281704 78.91518984 158.18461217 75.42675209 158.18975449 C73.46669598 158.19517768 71.50667627 158.21075598 69.54667664 158.22659302 C49.64480806 158.22905641 32.74932546 151.63695613 18.25 137.75 C14.12367581 133.44758801 10.62863119 129.09774936 7.68032837 123.91107178 C6.08857127 121.05548069 6.08857127 121.05548069 4.39682007 118.71124268 C-2.22353954 108.11716442 -0.74976199 96.02533972 -0.5859375 83.984375 C-0.57473149 81.55772963 -0.56619795 79.13107059 -0.56021118 76.70440674 C-0.53742393 70.35180451 -0.47858703 64.00003992 -0.4119873 57.64776611 C-0.33948815 50.00771898 -0.31221077 42.36739003 -0.27726746 34.72709656 C-0.21930278 23.15081712 -0.10425685 11.57637155 0 0 Z " fill="#0D2022" transform="translate(134,201)"/><path d="M0 0 C25.41 0 50.82 0 77 0 C77 80.52 77 161.04 77 244 C76.67 244 76.34 244 76 244 C76 163.81 76 83.62 76 1 C69.07 1 62.14 1 55 1 C55.00888245 3.83624969 55.01776489 6.67249939 55.0269165 9.59469604 C55.10682559 35.71523752 55.16638075 61.83576913 55.20426132 87.95640587 C55.20926304 91.39281248 55.21444043 94.82921881 55.21972656 98.265625 C55.2207758 98.94963694 55.22182505 99.63364888 55.22290608 100.33838846 C55.24022369 111.35599623 55.2717126 122.37351893 55.30861118 133.39107655 C55.34626323 144.72974514 55.36798793 156.06835138 55.37635398 167.40708649 C55.3815318 173.761729 55.39354961 180.11617978 55.42292023 186.47076035 C55.45043769 192.47406594 55.45837303 198.47710416 55.45243073 204.48046684 C55.45351496 206.6626386 55.4612492 208.84482102 55.4768219 211.02693748 C55.75499788 252.08335615 44.92469049 285.42090475 16 315 C9.71910112 321 9.71910112 321 7 321 C7 321.66 7 322.32 7 323 C-15.4229523 340.37598555 -43.79566957 347.93909727 -71.828125 344.53515625 C-74.25457433 344.1089722 -76.62158321 343.63727914 -79 343 C-79 342.67 -79 342.34 -79 342 C-78.17145508 341.97812622 -78.17145508 341.97812622 -77.32617188 341.95581055 C-60.6938221 341.46834628 -45.18788284 340.4579885 -30 333 C-29.41895508 332.72027344 -28.83791016 332.44054687 -28.23925781 332.15234375 C-18.11796798 327.23278993 -8.15371991 321.36161586 -0.265625 313.20703125 C1 312 1 312 3 312 C3.25394531 311.42507813 3.50789063 310.85015625 3.76953125 310.2578125 C5.13923449 307.74451577 6.72943428 305.96001301 8.6875 303.875 C20.89299825 290.30845698 29.87145124 273.81452821 34 256 C34.24603879 254.97671852 34.49207758 253.95343704 34.74557209 252.89914703 C37.37485861 240.67307189 37.44210145 228.7105978 37.43237305 216.24414062 C37.44140613 213.88712557 37.45173711 211.53011518 37.46325684 209.17311096 C37.49067119 202.82094259 37.50009011 196.46886373 37.50611091 190.11664391 C37.51457842 184.13668572 37.53671853 178.15678405 37.55872939 172.17686397 C37.60184106 160.34497745 37.63189657 148.51309615 37.65356445 136.68115234 C37.67462126 125.19837893 37.70193703 113.71564805 37.73754883 102.23291016 C37.73974765 101.52322179 37.74194648 100.81353342 37.74421193 100.08233935 C37.75528276 96.52147615 37.76647535 92.96061334 37.77772844 89.39975071 C37.87069198 59.93320655 37.94157585 30.46663271 38 1 C25.46 1 12.92 1 0 1 C0 0.67 0 0.34 0 0 Z " fill="#5497A3" transform="translate(290,72)"/><path d="M0 0 C0.33 0 0.66 0 1 0 C1 11.88 1 23.76 1 36 C-10.88 36 -22.76 36 -35 36 C-25 31 -25 31 -21 31 C-21 30.34 -21 29.68 -21 29 C-19.34064612 27.98791182 -17.67240964 26.99036548 -16 26 C-14.37102903 24.54969037 -12.78706307 23.04737893 -11.25 21.5 C-10.47140625 20.7265625 -9.6928125 19.953125 -8.890625 19.15625 C-6.80367383 17.05714121 -6.80367383 17.05714121 -6 14 C-5.34 14 -4.68 14 -4 14 C-3.80083984 13.17242187 -3.80083984 13.17242187 -3.59765625 12.328125 C-2.94339359 9.77949398 -2.19964936 7.26840657 -1.4375 4.75 C-1.16808594 3.85796875 -0.89867187 2.9659375 -0.62109375 2.046875 C-0.41613281 1.37140625 -0.21117187 0.6959375 0 0 Z " fill="#000000" transform="translate(499,464)"/><path d="M0 0 C5 10 5 10 5 14 C5.66 14 6.32 14 7 14 C8.01208818 15.65935388 9.00963452 17.32759036 10 19 C11.45030963 20.62897097 12.95262107 22.21293693 14.5 23.75 C15.2734375 24.52859375 16.046875 25.3071875 16.84375 26.109375 C18.94285879 28.19632617 18.94285879 28.19632617 22 29 C22 29.66 22 30.32 22 31 C22.55171875 31.13277344 23.1034375 31.26554687 23.671875 31.40234375 C26.22050602 32.05660641 28.73159343 32.80035064 31.25 33.5625 C32.14203125 33.83191406 33.0340625 34.10132813 33.953125 34.37890625 C34.62859375 34.58386719 35.3040625 34.78882813 36 35 C36 35.33 36 35.66 36 36 C24.12 36 12.24 36 0 36 C0 24.12 0 12.24 0 0 Z " fill="#000000" transform="translate(0,464)"/><path d="M0 0 C11.88 0 23.76 0 36 0 C36 11.55 36 23.1 36 35 C35.34 33.68 34.68 32.36 34 31 C33.46375 29.989375 32.9275 28.97875 32.375 27.9375 C31 25 31 25 31 22 C30.34 22 29.68 22 29 22 C27.98791182 20.34064612 26.99036548 18.67240964 26 17 C24.54969037 15.37102903 23.04737893 13.78706307 21.5 12.25 C20.7265625 11.47140625 19.953125 10.6928125 19.15625 9.890625 C17.05714121 7.80367383 17.05714121 7.80367383 14 7 C14 6.34 14 5.68 14 5 C13.44828125 4.86722656 12.8965625 4.73445312 12.328125 4.59765625 C9.77949398 3.94339359 7.26840657 3.19964936 4.75 2.4375 C3.85796875 2.16808594 2.9659375 1.89867188 2.046875 1.62109375 C1.37140625 1.41613281 0.6959375 1.21117188 0 1 C0 0.67 0 0.34 0 0 Z " fill="#000000" transform="translate(464,0)"/><path d="M0 0 C11.55 0 23.1 0 35 0 C33.02 0.99 33.02 0.99 31 2 C29.4840625 2.804375 29.4840625 2.804375 27.9375 3.625 C25 5 25 5 22 5 C22 5.66 22 6.32 22 7 C21.05125 7.2475 20.1025 7.495 19.125 7.75 C15.47335639 9.21065744 15.50937484 9.60390661 14 13 C12.50275531 14.58019453 10.94025543 16.05996015 9.33984375 17.53515625 C7.74891301 19.07501668 7.74891301 19.07501668 7 22 C6.34 22 5.68 22 5 22 C4.80083984 22.82757812 4.80083984 22.82757812 4.59765625 23.671875 C3.94339359 26.22050602 3.19964936 28.73159343 2.4375 31.25 C2.16808594 32.14203125 1.89867188 33.0340625 1.62109375 33.953125 C1.41613281 34.62859375 1.21117188 35.3040625 1 36 C0.67 36 0.34 36 0 36 C0 24.12 0 12.24 0 0 Z " fill="#000000" transform="translate(0,0)"/><path d="M0 0 C-0.5259375 1.11375 -0.5259375 1.11375 -1.0625 2.25 C-2.0720098 5.21122875 -1.87980884 6.12062561 -1 9 C-18.67183881 14.05942215 -36.8834206 16.85420309 -55 12 C-55 11.67 -55 11.34 -55 11 C-54.44763672 10.98541748 -53.89527344 10.97083496 -53.32617188 10.95581055 C-35.33658979 10.42856824 -15.84602629 0 0 0 Z " fill="#56949E" transform="translate(266,403)"/><path d="M0 0 C1.53624023 0.24447876 1.53624023 0.24447876 3.10351562 0.49389648 C9.4958418 1.28751291 15.91299864 1.12289874 22.34375 1.09765625 C23.72237089 1.09578788 25.10099246 1.09436596 26.47961426 1.09336853 C30.083149 1.08957635 33.68664252 1.07977478 37.29016113 1.06866455 C40.97728925 1.05837896 44.66442412 1.05385569 48.3515625 1.04882812 C55.56772699 1.03814909 62.78385769 1.02111299 70 1 C70 2.32 70 3.64 70 5 C71.32 5.33 72.64 5.66 74 6 C72.56542672 6.9834496 71.12722594 7.96160921 69.6875 8.9375 C68.48673828 9.75541016 68.48673828 9.75541016 67.26171875 10.58984375 C65 12 65 12 62 13 C62 12.34 62 11.68 62 11 C62.66 11 63.32 11 64 11 C64.33 10.01 64.66 9.02 65 8 C65.66 6.68 66.32 5.36 67 4 C47.2 4 27.4 4 7 4 C7 3.34 7 2.68 7 2 C4.69 2 2.38 2 0 2 C0 1.34 0 0.68 0 0 Z " fill="#52BBB8" transform="translate(185,357)"/><path d="M0 0 C0.71542969 0.36351562 1.43085938 0.72703125 2.16796875 1.1015625 C8.81030388 4.45280532 15.50280094 7.64489933 22.28515625 10.703125 C25 12 25 12 28 14 C26.02 14 24.04 14 22 14 C22 13.34 22 12.68 22 12 C19.36 11.67 16.72 11.34 14 11 C13.67 12.98 13.34 14.96 13 17 C12.01 17 11.02 17 10 17 C8.02734375 14.55078125 8.02734375 14.55078125 5.9375 11.3125 C5.24527344 10.25675781 4.55304688 9.20101563 3.83984375 8.11328125 C2.25869815 5.43775462 1.04462561 2.91737412 0 0 Z " fill="#082F32" transform="translate(146,363)"/><path d="M0 0 C1.52152079 0.11633358 3.04220723 0.2435887 4.5625 0.375 C5.40941406 0.44460938 6.25632813 0.51421875 7.12890625 0.5859375 C10 1 10 1 13.24023438 2 C16.97215214 2.99259319 20.17694536 3.31138521 24.02734375 3.4140625 C25.31318359 3.45273437 26.59902344 3.49140625 27.92382812 3.53125 C29.26171418 3.56269499 30.59960489 3.59394259 31.9375 3.625 C33.30275756 3.66324342 34.66799264 3.7022987 36.03320312 3.7421875 C39.3553354 3.83609937 42.67746741 3.92177787 46 4 C46 3.34 46 2.68 46 2 C49.63 2 53.26 2 57 2 C50.97139741 8.02860259 35.42771945 6.36771667 27.28100586 6.37890625 C18.09336612 6.21369236 7.80363308 5.20242206 0 0 Z " fill="#57BDBB" transform="translate(171,375)"/><path d="M0 0 C6.6 0.33 13.2 0.66 20 1 C20 1.33 20 1.66 20 2 C18.92878906 2.12117188 17.85757813 2.24234375 16.75390625 2.3671875 C15.35671248 2.53597601 13.95958009 2.70527313 12.5625 2.875 C11.85544922 2.95363281 11.14839844 3.03226562 10.41992188 3.11328125 C8.60326568 3.33927676 6.79937478 3.66300727 5 4 C4.67 4.66 4.34 5.32 4 6 C4.63808594 6.04898437 5.27617187 6.09796875 5.93359375 6.1484375 C6.75988281 6.22320312 7.58617187 6.29796875 8.4375 6.375 C9.26121094 6.44460938 10.08492187 6.51421875 10.93359375 6.5859375 C11.61550781 6.72257812 12.29742187 6.85921875 13 7 C13.33 7.66 13.66 8.32 14 9 C4.83404773 8.75763107 -3.39678442 5.89264444 -12 3 C-7.70272603 1.69339643 -4.39784135 2.3403238 0 3 C0 2.01 0 1.02 0 0 Z " fill="#0D3235" transform="translate(220,416)"/><path d="M0 0 C3.94580104 0.43842234 6.38616645 1.19308322 10 3 C-10.13 3 -30.26 3 -51 3 C-51 2.67 -51 2.34 -51 2 C-50.3758168 1.98969254 -49.75163361 1.97938507 -49.10853577 1.96876526 C-42.63645448 1.86093467 -36.16451907 1.74631853 -29.69262695 1.62768555 C-27.27436361 1.58426122 -24.8560681 1.54259188 -22.43774414 1.50268555 C-18.97011604 1.44516397 -15.50265097 1.38141813 -12.03515625 1.31640625 C-10.94662857 1.29969376 -9.85810089 1.28298126 -8.73658752 1.26576233 C-7.73562546 1.24581711 -6.73466339 1.22587189 -5.70336914 1.20532227 C-4.37433311 1.18200584 -4.37433311 1.18200584 -3.01844788 1.15821838 C-1.00362459 1.22018675 -1.00362459 1.22018675 0 0 Z " fill="#033437" transform="translate(244,356)"/><path d="M0 0 C-0.33 0.33 -0.66 0.66 -1 1 C1.97 1.33 4.94 1.66 8 2 C8 2.33 8 2.66 8 3 C-15.99516389 3.41277905 -15.99516389 3.41277905 -25 1 C-25 0.67 -25 0.34 -25 0 C-21.58382503 -0.1972935 -18.16705407 -0.38112295 -14.75 -0.5625 C-13.29787109 -0.64661133 -13.29787109 -0.64661133 -11.81640625 -0.73242188 C-10.88183594 -0.78076172 -9.94726562 -0.82910156 -8.984375 -0.87890625 C-8.12553711 -0.9260376 -7.26669922 -0.97316895 -6.38183594 -1.02172852 C-4.07335735 -1.00066921 -2.20243733 -0.66206871 0 0 Z " fill="#4F8187" transform="translate(236,414)"/><path d="M0 0 C11.88 0 23.76 0 36 0 C31.85646931 4.14353069 26.41926404 3.18370639 20.9375 3.1875 C20.03322266 3.19974609 19.12894531 3.21199219 18.19726562 3.22460938 C11.90800246 3.238096 6.11431904 2.46130983 0 1 C0 0.67 0 0.34 0 0 Z " fill="#032C2F" transform="translate(184,380)"/><path d="M0 0 C1.65 0 3.3 0 5 0 C4.27087654 0.5842852 4.27087654 0.5842852 3.52702332 1.18037415 C1.50860412 3.58555533 1.60535124 4.99798799 1.56762695 8.11401367 C1.54783279 9.15486618 1.52803864 10.19571869 1.50764465 11.26811218 C1.50125473 12.39006485 1.49486481 13.51201752 1.48828125 14.66796875 C1.47033005 15.81791824 1.45237885 16.96786774 1.43388367 18.15266418 C1.37963739 21.83090532 1.34583829 25.50901564 1.3125 29.1875 C1.27933966 31.67905472 1.24485122 34.17059215 1.20898438 36.66210938 C1.12390265 42.77462228 1.05561344 48.88715182 1 55 C0.67 55 0.34 55 0 55 C0 36.85 0 18.7 0 0 Z " fill="#05262C" transform="translate(345,73)"/><path d="M0 0 C0.66 0 1.32 0 2 0 C2.4907753 7.52522134 0.51571411 14.35071463 -3 21 C-3.66 21 -4.32 21 -5 21 C-5.33 21.99 -5.66 22.98 -6 24 C-6 22.02 -6 20.04 -6 18 C-5.01 17.67 -4.02 17.34 -3 17 C-3.020625 16.195625 -3.04125 15.39125 -3.0625 14.5625 C-3 12 -3 12 -2 11 C-2.020625 10.0925 -2.04125 9.185 -2.0625 8.25 C-1.99935154 4.96628031 -1.38420337 2.94143216 0 0 Z " fill="#74DAD9" transform="translate(498,457)"/><path d="M0 0 C3.63 1.98 7.26 3.96 11 6 C10.67 6.66 10.34 7.32 10 8 C2.74 8 -4.52 8 -12 8 C-12 7.67 -12 7.34 -12 7 C-6.65097076 6.40801257 -1.39115154 5.85812759 4 6 C3.67 5.34 3.34 4.68 3 4 C2.01 3.67 1.02 3.34 0 3 C0 2.01 0 1.02 0 0 Z " fill="#032728" transform="translate(233,350)"/><path d="M0 0 C3 1 3 1 4 3 C5.97522846 4.04808041 7.97481509 5.0520411 10 6 C10 6.99 10 7.98 10 9 C11.32 9.33 12.64 9.66 14 10 C14 10.66 14 11.32 14 12 C8.18366895 10.69132551 3.88893096 7.43180204 0 3 C0 2.01 0 1.02 0 0 Z " fill="#52C0BC" transform="translate(227,342)"/><path d="M0 0 C-0.66 0 -1.32 0 -2 0 C-2 0.66 -2 1.32 -2 2 C-2.66 2 -3.32 2 -4 2 C-4.33 3.65 -4.66 5.3 -5 7 C-6.98 7 -8.96 7 -11 7 C-10.34 6.67 -9.68 6.34 -9 6 C-9.33 5.01 -9.66 4.02 -10 3 C-8.61629727 0.52390037 -7.6156055 -0.73067259 -5 -1.875 C-3 -2 -3 -2 0 0 Z " fill="#589CA9" transform="translate(273,404)"/><path d="M0 0 C0.66 0.33 1.32 0.66 2 1 C0.90452297 3.60813572 -0.20087605 6.21125522 -1.3125 8.8125 C-1.7755957 9.91948242 -1.7755957 9.91948242 -2.24804688 11.04882812 C-2.55419922 11.76103516 -2.86035156 12.47324219 -3.17578125 13.20703125 C-3.45333252 13.8616333 -3.73088379 14.51623535 -4.0168457 15.19067383 C-5.09309472 17.1713248 -6.34093332 18.48822407 -8 20 C-8 16.23312136 -7.76462683 15.08809695 -6 12 C-5.34 12 -4.68 12 -4 12 C-3.34 9.03 -2.68 6.06 -2 3 C-1.34 3 -0.68 3 0 3 C0 2.01 0 1.02 0 0 Z " fill="#072E31" transform="translate(357,349)"/><path d="M0 0 C3.61055091 0.76242216 6.85834625 2.12473374 10.25 3.5625 C11.32765625 4.01753906 12.4053125 4.47257812 13.515625 4.94140625 C14.33546875 5.29074219 15.1553125 5.64007813 16 6 C16 6.33 16 6.66 16 7 C14.22825181 6.91276622 12.45752623 6.80458345 10.6875 6.6875 C9.70136719 6.62949219 8.71523437 6.57148438 7.69921875 6.51171875 C4.74350106 5.95137285 3.74370302 5.41023796 2 3 C2 2.34 2 1.68 2 1 C1.34 0.67 0.68 0.34 0 0 Z " fill="#56C5C2" transform="translate(166,350)"/><path d="M0 0 C-1.28715972 1.64936048 -2.57987019 3.29439047 -3.875 4.9375 C-4.95394531 6.31228516 -4.95394531 6.31228516 -6.0546875 7.71484375 C-8 10 -8 10 -10 11 C-10 10.01 -10 9.02 -10 8 C-9.34 8 -8.68 8 -8 8 C-8 6.68 -8 5.36 -8 4 C-7.1875 1.8125 -7.1875 1.8125 -6 0 C-3 -1 -3 -1 0 0 Z " fill="#0C3032" transform="translate(346,376)"/><path d="M0 0 C0.66 0.99 1.32 1.98 2 3 C1.00390625 4.7265625 0.0078125 6.453125 -0.98828125 8.1796875 C-2.06892058 10.06219488 -2.06892058 10.06219488 -3.0625 12.375 C-4 14 -4 14 -7 15 C-7 11.06025045 -5.52210525 9.17063907 -3.5 5.8125 C-2.8503125 4.72582031 -2.200625 3.63914062 -1.53125 2.51953125 C-1.0259375 1.68808594 -0.520625 0.85664063 0 0 Z " fill="#568F97" transform="translate(314,354)"/><path d="M0 0 C2.5 1.8125 2.5 1.8125 5 4 C5 4.99 5 5.98 5 7 C5.66 7 6.32 7 7 7 C7.99 9.97 8.98 12.94 10 16 C9.34 16.33 8.68 16.66 8 17 C7.87625 16.195625 7.7525 15.39125 7.625 14.5625 C7.41875 13.716875 7.2125 12.87125 7 12 C6.34 11.67 5.68 11.34 5 11 C0 3.29166667 0 3.29166667 0 0 Z " fill="#89DDDA" transform="translate(488,15)"/><path d="M0 0 C-0.67546875 0.26554687 -1.3509375 0.53109375 -2.046875 0.8046875 C-2.93890625 1.15789062 -3.8309375 1.51109375 -4.75 1.875 C-5.63171875 2.22304688 -6.5134375 2.57109375 -7.421875 2.9296875 C-9.95124441 3.935538 -9.95124441 3.935538 -12.09375 5.09375 C-14.95183848 6.45251338 -17.88104744 6.64012086 -21 7 C-21.33 6.34 -21.66 5.68 -22 5 C-21.07380859 4.72736328 -21.07380859 4.72736328 -20.12890625 4.44921875 C-14.99530955 2.9255485 -9.93284889 1.3127063 -4.91015625 -0.546875 C-3 -1 -3 -1 0 0 Z " fill="#0C2C33" transform="translate(262,405)"/><path d="M0 0 C1.08667969 0.29197266 1.08667969 0.29197266 2.1953125 0.58984375 C2.74960938 0.74582031 3.30390625 0.90179688 3.875 1.0625 C3.545 2.7125 3.215 4.3625 2.875 6.0625 C2.111875 5.7325 1.34875 5.4025 0.5625 5.0625 C-2.11569135 3.88813314 -2.11569135 3.88813314 -5.125 4.0625 C-5.455 2.7425 -5.785 1.4225 -6.125 0.0625 C-3.57797384 -1.21101308 -2.6967055 -0.73941925 0 0 Z " fill="#4CC6C0" transform="translate(151.125,360.9375)"/><path d="M0 0 C2.125 0.9375 2.125 0.9375 4 2 C1.54379149 3.17133058 -0.91474917 4.33721722 -3.375 5.5 C-4.07367188 5.83386719 -4.77234375 6.16773438 -5.4921875 6.51171875 C-10.7734375 9 -10.7734375 9 -13 9 C-13 8.34 -13 7.68 -13 7 C-11.02 6.67 -9.04 6.34 -7 6 C-7 5.34 -7 4.68 -7 4 C-5.68 4 -4.36 4 -3 4 C-2.67 3.01 -2.34 2.02 -2 1 C-1.34 0.67 -0.68 0.34 0 0 Z " fill="#569098" transform="translate(281,401)"/><path d="M0 0 C0.75 1.6875 0.75 1.6875 1 4 C-0.5625 6.6875 -0.5625 6.6875 -3 9 C-6.25 9.8125 -6.25 9.8125 -9 10 C-7.625 8 -7.625 8 -6 6 C-5.34 6 -4.68 6 -4 6 C-3.67 5.01 -3.34 4.02 -3 3 C-2.34 3 -1.68 3 -1 3 C-0.67 2.01 -0.34 1.02 0 0 Z " fill="#50BEBA" transform="translate(335,388)"/><path d="M0 0 C0.66 0.33 1.32 0.66 2 1 C-0.23943282 4.35914922 -1.26842083 4.81681636 -5 6 C-5.99 6 -6.98 6 -8 6 C-8 6.99 -8 7.98 -8 9 C-9.65 8.67 -11.3 8.34 -13 8 C-10.23145402 5.85090038 -7.42165474 3.98221172 -4.375 2.25 C-3.59898437 1.80140625 -2.82296875 1.3528125 -2.0234375 0.890625 C-1.35570312 0.59671875 -0.68796875 0.3028125 0 0 Z " fill="#4FBDB8" transform="translate(308,410)"/><path d="M0 0 C3.3 1.65 6.6 3.3 10 5 C8.68 5.33 7.36 5.66 6 6 C5.67 7.32 5.34 8.64 5 10 C4.16121545 8.71186658 3.32913217 7.41936744 2.5 6.125 C2.0359375 5.40570313 1.571875 4.68640625 1.09375 3.9453125 C0 2 0 2 0 0 Z " fill="#073638" transform="translate(146,363)"/><path d="M0 0 C1 3 1 3 -0.4375 6.1875 C-1.2109375 7.5796875 -1.2109375 7.5796875 -2 9 C-3.98 9 -5.96 9 -8 9 C-7.04270084 7.87411986 -6.08412105 6.7493285 -5.125 5.625 C-4.59132813 4.99851562 -4.05765625 4.37203125 -3.5078125 3.7265625 C-2.38567993 2.44163349 -1.20628025 1.20628025 0 0 Z " fill="#0E3036" transform="translate(271,351)"/><path d="M0 0 C0.33 0 0.66 0 1 0 C1.37039877 6.4202454 1.37039877 6.4202454 -0.4375 9.25 C-0.953125 9.8275 -1.46875 10.405 -2 11 C-2.33 11.99 -2.66 12.98 -3 14 C-3.99 14.33 -4.98 14.66 -6 15 C-4.40109514 9.80355921 -2.25861997 4.93387858 0 0 Z " fill="#112F36" transform="translate(334,345)"/><path d="M0 0 C0.66 0 1.32 0 2 0 C1.67 2.31 1.34 4.62 1 7 C1.66 7 2.32 7 3 7 C2.67 8.32 2.34 9.64 2 11 C-0.91227269 7.71195019 -2.49701212 5.40114397 -3 1 C-2.01 1.495 -2.01 1.495 -1 2 C-0.67 1.34 -0.34 0.68 0 0 Z " fill="#082E2E" transform="translate(140,313)"/><path d="M0 0 C5.91492272 0.45224761 11.35199888 1.1582605 17 3 C17 3.66 17 4.32 17 5 C10.95198929 4.45018084 5.69398894 3.09570426 0 1 C0 0.67 0 0.34 0 0 Z " fill="#51B9B3" transform="translate(171,375)"/><path d="M0 0 C0.66 0 1.32 0 2 0 C0.68139111 4.61513112 -1.21355437 8.09897612 -4 12 C-4.85448418 9.60744429 -5.15624337 8.416649 -4.25 6 C-2.92756783 3.88410852 -1.62538696 1.89628479 0 0 Z " fill="#0B2930" transform="translate(313,352)"/><path d="M0 0 C0.33 0 0.66 0 1 0 C0.85786703 1.89611434 0.71113093 3.79188394 0.5625 5.6875 C0.48128906 6.74324219 0.40007812 7.79898437 0.31640625 8.88671875 C0.03548319 11.65086297 -0.40156852 14.28945741 -1 17 C-1.99 16.01 -2.98 15.02 -4 14 C-3.68160156 13.43667969 -3.36320312 12.87335938 -3.03515625 12.29296875 C-1.93294941 9.85147661 -1.64397458 7.9703111 -1.4375 5.3125 C-1.09964413 1.09964413 -1.09964413 1.09964413 0 0 Z " fill="#0E2C33" transform="translate(326,311)"/><path d="M0 0 C4.97209562 1.76429199 9.43438061 4.3939166 14 7 C13.67 7.66 13.34 8.32 13 9 C12.278125 8.54625 11.55625 8.0925 10.8125 7.625 C8.24586277 6.14205404 5.74867861 5.08500471 3 4 C2.01 3.34 1.02 2.68 0 2 C0 1.34 0 0.68 0 0 Z " fill="#53C4BF" transform="translate(185,407)"/><path d="M0 0 C0.33 0 0.66 0 1 0 C0.67 5.28 0.34 10.56 0 16 C-0.99 16.33 -1.98 16.66 -3 17 C-2.01 11.39 -1.02 5.78 0 0 Z " fill="#51B5B2" transform="translate(365,324)"/><path d="M0 0 C0.66 0.33 1.32 0.66 2 1 C1.01 3.97 0.02 6.94 -1 10 C-1.66 10 -2.32 10 -3 10 C-3.33 10.99 -3.66 11.98 -4 13 C-4 11.02 -4 9.04 -4 7 C-3.01 6.67 -2.02 6.34 -1 6 C-1.020625 5.195625 -1.04125 4.39125 -1.0625 3.5625 C-1 1 -1 1 0 0 Z " fill="#8BDDDB" transform="translate(496,468)"/><path d="M0 0 C0.66 0.33 1.32 0.66 2 1 C0.68 3.64 -0.64 6.28 -2 9 C-2.99 9 -3.98 9 -5 9 C-4.34 6.69 -3.68 4.38 -3 2 C-2.01 2 -1.02 2 0 2 C0 1.34 0 0.68 0 0 Z " fill="#579199" transform="translate(328,354)"/><path d="M0 0 C6.01326751 0.57914667 12.00892722 1.22337945 18 2 C18 2.33 18 2.66 18 3 C13.05 3 8.1 3 3 3 C3 2.34 3 1.68 3 1 C2.01 0.67 1.02 0.34 0 0 Z " fill="#58C9C6" transform="translate(224,424)"/><path d="M0 0 C2.64 0 5.28 0 8 0 C8.33 0.99 8.66 1.98 9 3 C9.99 3.33 10.98 3.66 12 4 C9.39517051 4.94721072 7.69325299 5.30222393 5.109375 4.17578125 C3.37417127 3.17063275 1.68359577 2.0893855 0 1 C0 0.67 0 0.34 0 0 Z " fill="#0D2E34" transform="translate(190,409)"/><path d="M0 0 C1 3 1 3 -0.25 5.5625 C-2 8 -2 8 -5 10 C-5.99 9.67 -6.98 9.34 -8 9 C-5.36 6.03 -2.72 3.06 0 0 Z " fill="#102F36" transform="translate(317,374)"/><path d="M0 0 C2.475 0.495 2.475 0.495 5 1 C5.33 3.31 5.66 5.62 6 8 C5.01 8.495 5.01 8.495 4 9 C0 2.25 0 2.25 0 0 Z " fill="#54CAC6" transform="translate(217,329)"/><path d="M0 0 C1.32 0 2.64 0 4 0 C5.75 2 5.75 2 7 4 C5.35 4.66 3.7 5.32 2 6 C2 5.34 2 4.68 2 4 C1.34 4 0.68 4 0 4 C0 2.68 0 1.36 0 0 Z " fill="#0E2024" transform="translate(152,369)"/><path d="M0 0 C3.94580104 0.43842234 6.38616645 1.19308322 10 3 C5.05 3 0.1 3 -5 3 C-3.68 2.34 -2.36 1.68 -1 1 C-0.67 0.67 -0.34 0.34 0 0 Z " fill="#053D3F" transform="translate(244,356)"/><path d="M0 0 C3.63 0 7.26 0 11 0 C8.41073669 2.58926331 6.97294721 2.37398043 3.375 2.625 C2.37210938 2.69976562 1.36921875 2.77453125 0.3359375 2.8515625 C-0.82035156 2.92503906 -0.82035156 2.92503906 -2 3 C-1.34 2.67 -0.68 2.34 0 2 C0 1.34 0 0.68 0 0 Z " fill="#58C7C4" transform="translate(217,377)"/><path d="M0 0 C1.32 0.33 2.64 0.66 4 1 C4 1.66 4 2.32 4 3 C4.928125 3.1546875 4.928125 3.1546875 5.875 3.3125 C8 4 8 4 10 7 C5.94654898 7 4.1784671 5.41839888 1 3 C0.67 2.01 0.34 1.02 0 0 Z " fill="#88DBD8" transform="translate(474,4)"/><path d="M0 0 C1.46067199 0.45082469 2.91848032 0.91093537 4.375 1.375 C5.18710938 1.63023437 5.99921875 1.88546875 6.8359375 2.1484375 C9 3 9 3 11 5 C6.28596212 4.52060632 2.33420699 4.03165952 -2 2 C-1.34 1.34 -0.68 0.68 0 0 Z " fill="#0D3C41" transform="translate(179,353)"/><path d="M0 0 C1.3805087 3.76668598 0.59568159 6.44789173 -0.4375 10.25 C-0.72496094 11.32765625 -1.01242187 12.4053125 -1.30859375 13.515625 C-1.53675781 14.33546875 -1.76492188 15.1553125 -2 16 C-2.33 16 -2.66 16 -3 16 C-3.37851209 10.06997733 -2.10575375 5.52760359 0 0 Z " fill="#548790" transform="translate(341,320)"/><path d="M0 0 C0 0.99 0 1.98 0 3 C-2 5 -2 5 -4.0625 5.5 C-4.701875 5.665 -5.34125 5.83 -6 6 C-6.33 6.66 -6.66 7.32 -7 8 C-7.99 7.67 -8.98 7.34 -10 7 C-8.1875 5 -8.1875 5 -6 3 C-5.01 3 -4.02 3 -3 3 C-3 2.34 -3 1.68 -3 1 C-2.01 0.67 -1.02 0.34 0 0 Z " fill="#91DFDF" transform="translate(25,4)"/><path d="M0 0 C-0.99 1.485 -0.99 1.485 -2 3 C-5 3.3125 -5 3.3125 -8 3 C-8.66 2.34 -9.32 1.68 -10 1 C-6.1496895 -1.56687367 -4.41430237 -0.83288724 0 0 Z " fill="#07292D" transform="translate(214,415)"/><path d="M0 0 C3.97497544 3.40712181 5.86793788 7.32760855 8 12 C5 11 5 11 3.5 8.0625 C3.005 7.051875 2.51 6.04125 2 5 C1.01 4.34 0.02 3.68 -1 3 C-0.67 2.01 -0.34 1.02 0 0 Z " fill="#53BAB7" transform="translate(146,365)"/><path d="M0 0 C0.66 0.33 1.32 0.66 2 1 C0.02 3.31 -1.96 5.62 -4 8 C-4.33 6.68 -4.66 5.36 -5 4 C-3.35 2.68 -1.7 1.36 0 0 Z " fill="#55C8C5" transform="translate(271,348)"/><path d="M0 0 C3.33727786 1.17255709 5.77437487 2.18868404 8 5 C8 5.66 8 6.32 8 7 C8.66 7.33 9.32 7.66 10 8 C7 8 7 8 5.17578125 6.50390625 C4.56089844 5.86324219 3.94601563 5.22257812 3.3125 4.5625 C2.68988281 3.92441406 2.06726563 3.28632813 1.42578125 2.62890625 C0 1 0 1 0 0 Z " fill="#08373A" transform="translate(151,336)"/><path d="M0 0 C1.5843317 0.08768248 3.16753567 0.19587329 4.75 0.3125 C6.07257813 0.39951172 6.07257813 0.39951172 7.421875 0.48828125 C10.32303774 1.0641181 11.79225607 2.07596148 14 4 C9.02906176 3.58846263 4.55491614 3.20399168 0 1 C0 0.67 0 0.34 0 0 Z " fill="#124246" transform="translate(208,418)"/><path d="M0 0 C1.65 0 3.3 0 5 0 C1.24532309 3.05936637 -2.08113061 5 -7 5 C-7 4.34 -7 3.68 -7 3 C-3.535 2.505 -3.535 2.505 0 2 C0 1.34 0 0.68 0 0 Z " fill="#52BDB7" transform="translate(240,371)"/><path d="M0 0 C0.33 0.99 0.66 1.98 1 3 C0.67 3.66 0.34 4.32 0 5 C-0.99 5 -1.98 5 -3 5 C-3 5.99 -3 6.98 -3 8 C-3.66 8 -4.32 8 -5 8 C-5 8.99 -5 9.98 -5 11 C-5.66 10.67 -6.32 10.34 -7 10 C-6.67 9.01 -6.34 8.02 -6 7 C-5.34 7 -4.68 7 -4 7 C-3.896875 6.401875 -3.79375 5.80375 -3.6875 5.1875 C-2.91123545 2.71756736 -1.92911079 1.67748765 0 0 Z " fill="#93DEDE" transform="translate(11,15)"/><path d="M0 0 C0.33 0 0.66 0 1 0 C1.08131463 1.43655854 1.13933559 2.8744483 1.1875 4.3125 C1.23970703 5.51326172 1.23970703 5.51326172 1.29296875 6.73828125 C0.93801608 9.47851584 0.10633718 10.29171079 -2 12 C-1.85831863 10.56208484 -1.71148957 9.1246763 -1.5625 7.6875 C-1.48128906 6.88699219 -1.40007812 6.08648437 -1.31640625 5.26171875 C-1 3 -1 3 0 0 Z " fill="#0B4042" transform="translate(288,314)"/><path d="M0 0 C2.125 0.375 2.125 0.375 4 1 C2.35830472 3.02054804 0.69088222 5.02043058 -1 7 C-1.33 7 -1.66 7 -2 7 C-2.125 4.625 -2.125 4.625 -2 2 C-1.34 1.34 -0.68 0.68 0 0 Z " fill="#092E33" transform="translate(332,387)"/><path d="M0 0 C3.3 0 6.6 0 10 0 C10.33 1.32 10.66 2.64 11 4 C7.37 3.01 3.74 2.02 0 1 C0 0.67 0 0.34 0 0 Z " fill="#4FBAB6" transform="translate(241,354)"/><path d="M0 0 C1.98 1.65 3.96 3.3 6 5 C5.67 5.99 5.34 6.98 5 8 C4.34 8 3.68 8 3 8 C2.87625 7.360625 2.7525 6.72125 2.625 6.0625 C2.315625 5.0415625 2.315625 5.0415625 2 4 C1.34 3.67 0.68 3.34 0 3 C0 2.01 0 1.02 0 0 Z " fill="#54C6C2" transform="translate(153,339)"/><path d="M0 0 C2.25245881 2.68841859 3.88213958 4.64641875 5 8 C3.68 7.67 2.36 7.34 1 7 C0.67 4.69 0.34 2.38 0 0 Z " fill="#0A3A3E" transform="translate(218,333)"/><path d="M0 0 C3.87132028 0.57352893 6.08172796 2.48704352 9 5 C8.67 5.66 8.34 6.32 8 7 C6.66382648 6.02471263 5.3311249 5.04466681 4 4.0625 C3.2575 3.51722656 2.515 2.97195313 1.75 2.41015625 C1.1725 1.94480469 0.595 1.47945313 0 1 C0 0.67 0 0.34 0 0 Z " fill="#0B3A3F" transform="translate(179,401)"/><path d="M0 0 C0.33 1.32 0.66 2.64 1 4 C-0.97746603 4.73080266 -2.98072489 5.39421747 -5 6 C-5.66 5.67 -6.32 5.34 -7 5 C-4.69 3.35 -2.38 1.7 0 0 Z " fill="#0C363B" transform="translate(262,360)"/><path d="M0 0 C0.99 0 1.98 0 3 0 C2.67 1.65 2.34 3.3 2 5 C0.68 5.33 -0.64 5.66 -2 6 C-1.34 4.02 -0.68 2.04 0 0 Z " fill="#548E97" transform="translate(317,348)"/><path d="M0 0 C-2.97 1.32 -5.94 2.64 -9 4 C-8.67 2.68 -8.34 1.36 -8 0 C-4.71303767 -0.79953138 -3.28976808 -1.09658936 0 0 Z " fill="#083336" transform="translate(307,412)"/><path d="M0 0 C0.33 0.66 0.66 1.32 1 2 C0.0625 4.125 0.0625 4.125 -1 6 C-2.65 6 -4.3 6 -6 6 C-4 4 -2 2 0 0 Z " fill="#57BDBB" transform="translate(325,398)"/><path d="M0 0 C2.05078125 0.03255208 4.1015625 0.06510417 6.15234375 0.09765625 C3.77502765 2.47497235 2.44949168 2.76794146 -0.84765625 3.09765625 C-1.50765625 2.43765625 -2.16765625 1.77765625 -2.84765625 1.09765625 C-1.84765625 0.09765625 -1.84765625 0.09765625 0 0 Z " fill="#103E41" transform="translate(213.84765625,379.90234375)"/></svg>